<?xml version="1.0" encoding="UTF-8"?><svg id="Trunk_Logo" xmlns="http://www.w3.org/2000/svg" viewBox="0 0 519 519"><defs><style>.cls-1{stroke-width:0px;}</style></defs><path class="cls-1" d="m259.5,22c131.17,0,237.5,106.33,237.5,237.5s-106.33,237.5-237.5,237.5S22,390.67,22,259.5,128.33,22,259.5,22M259.5,0C224.48,0,190.49,6.86,158.48,20.4c-30.9,13.07-58.65,31.78-82.48,55.6-23.82,23.82-42.53,51.57-55.6,82.48C6.86,190.49,0,224.48,0,259.5s6.86,69.01,20.4,101.02c13.07,30.9,31.78,58.65,55.6,82.48,23.82,23.82,51.57,42.53,82.48,55.6,32.01,13.54,65.99,20.4,101.02,20.4s69.01-6.86,101.02-20.4c30.9-13.07,58.65-31.78,82.48-55.6,23.82-23.83,42.53-51.57,55.6-82.48,13.54-32.01,20.4-65.99,20.4-101.02s-6.86-69.01-20.4-101.02c-13.07-30.9-31.78-58.65-55.6-82.48-23.83-23.82-51.57-42.53-82.48-55.6C328.51,6.86,294.52,0,259.5,0h0Z"/><path class="cls-1" d="m129.11,356.35s-9.06-16.04-11.57-21.41c0,0-12.41,40.14-13.75,45.06s-3.8,14.53-3.8,14.53c0,0-4.02,7.38,9.84,9.61s20.12,0,20.12,0c0,0,6.26-3.58,4.47-14.09s-5.31-33.71-5.31-33.71Z"/><path class="cls-1" d="m461.89,283.4c-24.87-17.95-31.46-42.49-33.18-55.44.31-7.82.64-13.43.64-13.43,0,0-2.12-22.25-3.8-27.95,0,0,7.16-15.43,3.47-28.29-3.69-12.86-10.84-31.19-10.84-31.19,0,0-5.48-7.38-11.07-10.06s-18.78-12.41-18.78-12.41c0,0-3.8-2.35-6.93,0-3.13,2.35-6.93,5.81-6.93,5.81l-4.14-.56s-6.37.67-8.39,2.12c0,0-4.92-2.35-11.4-2.24,0,0-4.92-11.4-37.45-18.11,0,0-19.12-4.36-37.45,8.61-1.42,1.01-2.74,1.95-3.97,2.84-5.02,3.97-28.8,22.9-35.32,29.96-7.3,7.9-8.82,23.93-3.41,31.49l13.41,19.12s13.52,20.48,15.42,21.54c0,0,3.99,3.39,1.53,2.83-2.46-.56-22.19-18.06-30.86-29.96-10.56-14.51-12.86-24.76-6.93-37.62,4.78-10.36,15.18-19.59,23.31-25.25-13.09-2.05-42.28-6.28-51.88-4.99-12.52,1.68-46.17,1.45-74.79,31.86,0,0-12.07,10.06-25.71,35.78,0,0-1.07,1.59-4.8,11.58-4.92,14.46-10.1,35.49-8.42,61.69l-2.83,88.25s.3,12.97,2.39,14.76,7.04,0,7.04,0c0,0,.63-1.34,0-12.07-.63-10.73,4.7-29.52,3.6-37.71-.97-7.19-.16-19.9,5.89-34.79,3.03,10.8,7.08,22.45,12.44,34.86,34.1,78.93,32.65,75.02,32.65,75.02,0,0,4.15,5.14,0,14.65,0,0-.34-.34-.68,4.81-.34,5.14.22,7.38.22,7.38l5.59,8.05s2.57,5.03,13.64,5.14,20.24-.45,20.24-.45c0,0,1.79-.45,2.01-2.12.22-1.68,0-16.1,0-16.1,0,0-10.51-12.52-11.63-15.09-1.12-2.57-7.49-41.37-6.82-63.39,0,0,41.25-4.14,59.03-15.43,0,0,.78,61.27-4.02,75.02-4.81,13.75-5.37,14.98-5.37,14.98,0,0-2.91.78-4.25,6.71-1.34,5.93-1.45,12.86-1.45,12.86,0,0,2.91,6.26,9.39,7.04,6.48.78,21.47,1.12,21.47,1.12,0,0,10.4-1.23,11.63-4.47,0,0,2.12-16.21.56-20.01-1.57-3.8-3.13-4.47-3.13-4.47,0,0,26.39-91.12,26.5-96.48.11-5.37,7.38-19.45,9.28-21.02,1.9-1.57,8.5,3.24,10.84,19.57,2.35,16.32,6.82,76.7,6.82,76.7l5.7,8.39s.78.78-.78,3.69c-1.57,2.91-5.48,7.16-5.03,9.73.45,2.57-.78,11.52,7.71,15.43,8.5,3.91,28.4,1.9,34.21-5.03,5.81-6.93,4.58-5.59,4.58-5.59,0,0,.67-3.13-.45-5.59,0,0,.67-2.12-2.24-4.36l-8.39-5.59-.22-116.16s-2.59-8.06-2.24-16.93c2.38,2.35,4.41,3.89,5.22,3.96,1.79.15,5.07-.41,7.71,2.46,2.06,2.23,5.14,2.76,7.38,1.27,2.24-1.49,5.48-.41,5.48-.41,0,0,4.51,2.72,7.49,2.35,2.98-.37,3.95-4.99.82-8.51s-4.25-9.9-5.37-13.7c-.41-1.4-1.35-3.66-2.36-5.96,3.37-.06,7.32-.34,11.86-.98,0,0,23.37,42.71,26.83,82.73l3.47,40.02s3.02,22.47,24.26,22.14l3.58-.11s5.37-2.68,4.58-7.94c-.78-5.25-3.35-5.93-3.35-5.93,0,0-9.39-2.8-8.72-6.37.67-3.55,5.51-71.19,3.3-86.81,11.2,14.51,22.71,17.5,27.78,17.27,7.38-.34,4.81-4.47,4.81-4.47Z"/></svg>